<svg width="1em" height="1em" viewBox="0 0 24 24" fill="none" xmlns="http://www.w3.org/2000/svg">
<path d="M17.357 6.643L21 3M17.357 6.643C19.2348 7.84324 20.619 9.45359 21.4504 10.5944C21.7222 10.9674 21.8581 11.1538 21.9516 11.5146C22.0161 11.7633 22.0161 12.2367 21.9516 12.4854C21.8581 12.8462 21.7222 13.0326 21.4504 13.4056C19.961 15.4493 16.6974 19 12 19C9.92469 19 8.12923 18.3069 6.64299 17.357M17.357 6.643L13.4142 10.5858M2.99998 21L6.64299 17.357M6.64299 17.357L10.5858 13.4142M3.86085 15C3.33198 14.4297 2.8935 13.8775 2.54961 13.4056C2.2778 13.0326 2.1419 12.8462 2.04835 12.4854C1.98388 12.2367 1.98388 11.7633 2.04835 11.5146C2.1419 11.1538 2.2778 10.9674 2.54961 10.5944C4.03902 8.55068 7.30262 5 12 5C12.5904 5 13.1582 5.05609 13.7026 5.15824M13.4142 10.5858C13.7761 10.9477 14 11.4477 14 12C14 13.1046 13.1045 14 12 14C11.4477 14 10.9477 13.7761 10.5858 13.4142M13.4142 10.5858L10.5858 13.4142" stroke="currentColor" stroke-width="1.5" stroke-linecap="round" stroke-linejoin="round"/>
</svg>
